<svg width="330" height="244" viewBox="0 0 330 244" fill="none" xmlns="http://www.w3.org/2000/svg">
<g filter="url(#filter0_d)">
<rect x="8" y="3" width="314" height="227.823" rx="3" fill="#F5BA93"/>
<path fill-rule="evenodd" clip-rule="evenodd" d="M231.34 201.429H198.578L182.197 173.141L198.578 144.852H231.34L247.721 173.141L231.34 201.429Z" fill="#3D405B" stroke="#F5BA93" stroke-width="2" stroke-linejoin="round"/>
<path fill-rule="evenodd" clip-rule="evenodd" d="M133.054 201.429H100.292L83.9107 173.141L100.292 144.852H133.054L149.435 173.141L133.054 201.429Z" fill="#3D405B" stroke="#F5BA93" stroke-width="2" stroke-linejoin="round"/>
<path fill-rule="evenodd" clip-rule="evenodd" d="M51.1484 116.563H83.9106L100.292 144.852L83.9106 173.141H51.1484L34.7673 144.852L51.1484 116.563Z" fill="#3D405B" stroke="#F5BA93" stroke-width="2" stroke-linejoin="round"/>
<path fill-rule="evenodd" clip-rule="evenodd" d="M149.435 116.563H182.197L198.578 144.852L182.197 173.141H149.435L133.054 144.852L149.435 116.563Z" fill="#3D405B" stroke="#F5BA93" stroke-width="2" stroke-linejoin="round"/>
<path fill-rule="evenodd" clip-rule="evenodd" d="M231.34 144.852H198.578L182.197 116.563L198.578 88.3116H231.34L247.721 116.563L231.34 144.852Z" fill="#3D405B" stroke="#F5BA93" stroke-width="2" stroke-linejoin="round"/>
<path fill-rule="evenodd" clip-rule="evenodd" d="M133.054 144.852H100.292L83.9107 116.563L100.292 88.3116H133.054L149.435 116.563L133.054 144.852Z" fill="#3D405B" stroke="#F5BA93" stroke-width="2" stroke-linejoin="round"/>
<path fill-rule="evenodd" clip-rule="evenodd" d="M51.1484 60.0229H83.9106L100.292 88.3116L83.9106 116.563H51.1484L34.7673 88.3116L51.1484 60.0229Z" fill="#3D405B" stroke="#F5BA93" stroke-width="2" stroke-linejoin="round"/>
<path fill-rule="evenodd" clip-rule="evenodd" d="M149.435 60.0229H182.197L198.578 88.3116L182.197 116.563H149.435L133.054 88.3116L149.435 60.0229Z" fill="#3D405B" stroke="#F5BA93" stroke-width="2" stroke-linejoin="round"/>
<path fill-rule="evenodd" clip-rule="evenodd" d="M231.34 88.3117H198.578L182.197 60.023L198.578 31.7344H231.34L247.721 60.023L231.34 88.3117Z" fill="#3D405B" stroke="#F5BA93" stroke-width="2" stroke-linejoin="round"/>
<path fill-rule="evenodd" clip-rule="evenodd" d="M133.054 88.3117H100.292L83.9107 60.023L100.292 31.7344H133.054L149.435 60.023L133.054 88.3117Z" fill="#3D405B" stroke="#F5BA93" stroke-width="2" stroke-linejoin="round"/>
<path fill-rule="evenodd" clip-rule="evenodd" d="M247.721 116.563H280.483L296.864 144.852L280.483 173.141H247.721L231.34 144.852L247.721 116.563Z" fill="#3D405B" stroke="#F5BA93" stroke-width="2" stroke-linejoin="round"/>
<path fill-rule="evenodd" clip-rule="evenodd" d="M247.721 60.0229H280.483L296.864 88.3116L280.483 116.563H247.721L231.34 88.3116L247.721 60.0229Z" fill="#3D405B" stroke="#F5BA93" stroke-width="2" stroke-linejoin="round"/>
</g>
<defs>
<filter id="filter0_d" x="0" y="0" width="330" height="243.823" filterUnits="userSpaceOnUse" color-interpolation-filters="sRGB">
<feFlood flood-opacity="0" result="BackgroundImageFix"/>
<feColorMatrix in="SourceAlpha" type="matrix" values="0 0 0 0 0 0 0 0 0 0 0 0 0 0 0 0 0 0 127 0"/>
<feOffset dy="5"/>
<feGaussianBlur stdDeviation="4"/>
<feColorMatrix type="matrix" values="0 0 0 0 0 0 0 0 0 0 0 0 0 0 0 0 0 0 0.25 0"/>
<feBlend mode="normal" in2="BackgroundImageFix" result="effect1_dropShadow"/>
<feBlend mode="normal" in="SourceGraphic" in2="effect1_dropShadow" result="shape"/>
</filter>
</defs>
</svg>
