<svg width="330" height="346" viewBox="0 0 330 346" fill="none" xmlns="http://www.w3.org/2000/svg">
<g filter="url(#filter0_d)">
<rect x="8" y="3" width="314" height="330" rx="3" fill="#8478B3"/>
</g>
<g filter="url(#filter1_d)">
<path d="M122 168L184.354 204V276L122 312L59.6462 276V204L122 168Z" fill="#F5BA93"/>
<path d="M95.9777 225.324C95.9777 225.068 95.9777 225 95.7886 225C95.6805 225 95.64 225 95.5319 225.162L91.4656 231.471V231.863H95.0185V233.092C95.0185 233.592 94.9915 233.727 94.0053 233.727H93.7351V234.119C94.0459 234.092 95.1131 234.092 95.4914 234.092C95.8696 234.092 96.9504 234.092 97.2611 234.119V233.727H96.9909C96.0182 233.727 95.9777 233.592 95.9777 233.092V231.863H97.3421V231.471H95.9777V225.324ZM95.0861 226.378V231.471H91.8033L95.0861 226.378Z" fill="#3D405B"/>
<path d="M106.815 239.61H82V240.151H106.815V239.61Z" fill="#3D405B"/>
<path d="M87.2552 254.403L84.8775 249.148C84.7829 248.932 84.7154 248.932 84.6749 248.932C84.6614 248.932 84.5938 248.932 84.4452 249.04L83.1618 250.013C82.9862 250.148 82.9862 250.188 82.9862 250.229C82.9862 250.296 83.0267 250.377 83.1213 250.377C83.2024 250.377 83.432 250.188 83.5806 250.08C83.6617 250.013 83.8643 249.864 84.0129 249.756L86.6743 255.605C86.7688 255.822 86.8364 255.822 86.958 255.822C87.1606 255.822 87.2011 255.741 87.2957 255.551L93.4289 242.853C93.5235 242.663 93.5235 242.609 93.5235 242.582C93.5235 242.447 93.4154 242.312 93.2533 242.312C93.1452 242.312 93.0507 242.38 92.9426 242.596L87.2552 254.403Z" fill="#3D405B"/>
<path d="M99.8717 242.312H93.2578V242.853H99.8717V242.312Z" fill="#3D405B"/>
<path d="M95.7435 249.178C95.5139 249.191 95.4598 249.205 95.4598 249.327C95.4598 249.462 95.5274 249.462 95.7706 249.462H96.392C97.5403 249.462 98.0536 250.407 98.0536 251.704C98.0536 253.474 97.135 253.947 96.473 253.947C95.8246 253.947 94.7168 253.636 94.3251 252.744C94.7574 252.812 95.1491 252.569 95.1491 252.082C95.1491 251.691 94.8654 251.42 94.4872 251.42C94.1629 251.42 93.8117 251.61 93.8117 252.123C93.8117 253.325 95.014 254.311 96.5136 254.311C98.1212 254.311 99.31 253.082 99.31 251.718C99.31 250.475 98.3103 249.502 97.0134 249.272C98.1887 248.935 98.9453 247.949 98.9453 246.895C98.9453 245.828 97.8375 245.044 96.5271 245.044C95.1762 245.044 94.1765 245.868 94.1765 246.854C94.1765 247.395 94.5952 247.503 94.7979 247.503C95.0816 247.503 95.4058 247.3 95.4058 246.895C95.4058 246.463 95.0816 246.273 94.7844 246.273C94.7033 246.273 94.6763 246.273 94.6358 246.287C95.1491 245.368 96.419 245.368 96.4866 245.368C96.9324 245.368 97.8105 245.571 97.8105 246.895C97.8105 247.152 97.7699 247.908 97.3782 248.489C96.9729 249.083 96.5136 249.124 96.1488 249.137L95.7435 249.178Z" fill="#3D405B"/>
<path d="M103.938 252.42C103.87 252.65 103.87 252.677 103.681 252.934C103.384 253.312 102.79 253.893 102.155 253.893C101.601 253.893 101.29 253.393 101.29 252.596C101.29 251.853 101.709 250.34 101.966 249.772C102.425 248.827 103.06 248.34 103.587 248.34C104.478 248.34 104.654 249.448 104.654 249.556C104.654 249.57 104.613 249.745 104.6 249.772L103.938 252.42ZM104.803 248.962C104.654 248.611 104.289 248.07 103.587 248.07C102.06 248.07 100.412 250.043 100.412 252.042C100.412 253.379 101.196 254.163 102.114 254.163C102.857 254.163 103.492 253.582 103.87 253.136C104.006 253.933 104.64 254.163 105.046 254.163C105.451 254.163 105.775 253.92 106.018 253.433C106.235 252.974 106.424 252.15 106.424 252.096C106.424 252.028 106.37 251.974 106.289 251.974C106.167 251.974 106.154 252.042 106.099 252.245C105.897 253.042 105.64 253.893 105.086 253.893C104.695 253.893 104.667 253.541 104.667 253.271C104.667 252.961 104.708 252.812 104.83 252.285C104.924 251.947 104.992 251.65 105.1 251.258C105.6 249.232 105.721 248.746 105.721 248.665C105.721 248.475 105.573 248.327 105.37 248.327C104.938 248.327 104.83 248.8 104.803 248.962Z" fill="#3D405B"/>
<path d="M121.673 237.152C121.673 236.868 121.578 236.746 121.484 236.746C121.43 236.746 121.308 236.8 121.294 237.111C121.24 238.043 120.295 238.597 119.417 238.597C118.633 238.597 117.958 238.178 117.255 237.706C116.526 237.219 115.796 236.733 114.918 236.733C113.662 236.733 112.662 237.692 112.662 238.935C112.662 239.232 112.77 239.34 112.851 239.34C112.986 239.34 113.04 239.084 113.04 239.029C113.108 237.895 114.216 237.489 114.918 237.489C115.702 237.489 116.377 237.908 117.08 238.381C117.809 238.867 118.539 239.354 119.417 239.354C120.673 239.354 121.673 238.395 121.673 237.152ZM121.673 240.313C121.673 239.921 121.511 239.894 121.484 239.894C121.43 239.894 121.308 239.962 121.294 240.259C121.24 241.191 120.295 241.745 119.417 241.745C118.633 241.745 117.958 241.326 117.255 240.853C116.526 240.367 115.796 239.881 114.918 239.881C113.662 239.881 112.662 240.84 112.662 242.083C112.662 242.38 112.77 242.488 112.851 242.488C112.986 242.488 113.04 242.231 113.04 242.177C113.108 241.042 114.216 240.637 114.918 240.637C115.702 240.637 116.377 241.056 117.08 241.529C117.809 242.015 118.539 242.501 119.417 242.501C120.7 242.501 121.673 241.502 121.673 240.313Z" fill="#3D405B"/>
<path d="M132.123 240.988H131.826C131.785 241.218 131.677 241.961 131.542 242.177C131.447 242.299 130.677 242.299 130.272 242.299H127.773C128.138 241.988 128.962 241.124 129.313 240.799C131.366 238.908 132.123 238.206 132.123 236.868C132.123 235.315 130.894 234.274 129.326 234.274C127.759 234.274 126.841 235.612 126.841 236.774C126.841 237.462 127.435 237.462 127.476 237.462C127.759 237.462 128.111 237.26 128.111 236.828C128.111 236.449 127.854 236.193 127.476 236.193C127.354 236.193 127.327 236.193 127.287 236.206C127.543 235.287 128.273 234.666 129.151 234.666C130.299 234.666 131.002 235.625 131.002 236.868C131.002 238.016 130.34 239.016 129.57 239.881L126.841 242.934V243.258H131.772L132.123 240.988Z" fill="#3D405B"/>
<path d="M135.278 242.609C135.278 242.218 134.954 241.948 134.63 241.948C134.238 241.948 133.968 242.272 133.968 242.596C133.968 242.988 134.292 243.258 134.616 243.258C135.008 243.258 135.278 242.934 135.278 242.609Z" fill="#3D405B"/>
<path d="M138.953 238.408C138.723 238.422 138.669 238.435 138.669 238.557C138.669 238.692 138.737 238.692 138.98 238.692H139.601C140.75 238.692 141.263 239.638 141.263 240.934C141.263 242.704 140.344 243.177 139.682 243.177C139.034 243.177 137.926 242.866 137.534 241.975C137.967 242.042 138.358 241.799 138.358 241.313C138.358 240.921 138.075 240.651 137.696 240.651C137.372 240.651 137.021 240.84 137.021 241.353C137.021 242.556 138.223 243.542 139.723 243.542C141.33 243.542 142.519 242.312 142.519 240.948C142.519 239.705 141.52 238.732 140.223 238.503C141.398 238.165 142.154 237.179 142.154 236.125C142.154 235.058 141.047 234.274 139.736 234.274C138.385 234.274 137.386 235.098 137.386 236.085C137.386 236.625 137.804 236.733 138.007 236.733C138.291 236.733 138.615 236.53 138.615 236.125C138.615 235.693 138.291 235.504 137.994 235.504C137.913 235.504 137.886 235.504 137.845 235.517C138.358 234.599 139.628 234.599 139.696 234.599C140.142 234.599 141.02 234.801 141.02 236.125C141.02 236.382 140.979 237.138 140.587 237.719C140.182 238.314 139.723 238.354 139.358 238.368L138.953 238.408Z" fill="#3D405B"/>
<path d="M147.147 241.65C147.08 241.88 147.08 241.907 146.891 242.164C146.593 242.542 145.999 243.123 145.364 243.123C144.81 243.123 144.499 242.623 144.499 241.826C144.499 241.083 144.918 239.57 145.175 239.002C145.634 238.057 146.269 237.57 146.796 237.57C147.688 237.57 147.863 238.678 147.863 238.786C147.863 238.8 147.823 238.975 147.809 239.002L147.147 241.65ZM148.012 238.192C147.863 237.841 147.498 237.3 146.796 237.3C145.269 237.3 143.621 239.273 143.621 241.272C143.621 242.609 144.405 243.393 145.323 243.393C146.066 243.393 146.701 242.812 147.08 242.366C147.215 243.163 147.85 243.393 148.255 243.393C148.66 243.393 148.984 243.15 149.228 242.664C149.444 242.204 149.633 241.38 149.633 241.326C149.633 241.259 149.579 241.204 149.498 241.204C149.376 241.204 149.363 241.272 149.309 241.475C149.106 242.272 148.849 243.123 148.296 243.123C147.904 243.123 147.877 242.772 147.877 242.501C147.877 242.191 147.917 242.042 148.039 241.515C148.133 241.177 148.201 240.88 148.309 240.488C148.809 238.462 148.93 237.976 148.93 237.895C148.93 237.706 148.782 237.557 148.579 237.557C148.147 237.557 148.039 238.03 148.012 238.192Z" fill="#3D405B"/>
<path d="M156.32 235.636C156.464 235.636 156.662 235.636 156.662 235.429C156.662 235.221 156.464 235.221 156.32 235.221H151.159C151.015 235.221 150.817 235.221 150.817 235.429C150.817 235.636 151.015 235.636 151.159 235.636H156.32Z" fill="#3D405B"/>
<path d="M160.295 231.943C160.295 231.7 160.277 231.691 160.034 231.691C159.665 232.051 159.188 232.267 158.332 232.267V232.565C158.575 232.565 159.062 232.565 159.584 232.321V236.942C159.584 237.275 159.557 237.383 158.701 237.383H158.386V237.68C158.755 237.653 159.53 237.653 159.935 237.653C160.34 237.653 161.124 237.653 161.493 237.68V237.383H161.178C160.322 237.383 160.295 237.275 160.295 236.942V231.943Z" fill="#3D405B"/>
</g>
<g filter="url(#filter2_d)">
<rect x="194" y="69" width="99" height="99" fill="#77CAD0"/>
<path d="M220.107 103.384C220.107 103.105 220.107 103.031 219.901 103.031C219.784 103.031 219.74 103.031 219.622 103.208L215.201 110.067V110.493H219.064V111.83C219.064 112.373 219.035 112.52 217.962 112.52H217.669V112.946C218.007 112.917 219.167 112.917 219.578 112.917C219.989 112.917 221.165 112.917 221.502 112.946V112.52H221.209C220.151 112.52 220.107 112.373 220.107 111.83V110.493H221.591V110.067H220.107V103.384ZM219.138 104.529V110.067H215.568L219.138 104.529Z" fill="#3D405B"/>
<path d="M222.175 118.917H214.625V119.504H222.175V118.917Z" fill="#3D405B"/>
<path d="M219.046 131.21C218.973 131.46 218.973 131.489 218.767 131.769C218.444 132.18 217.798 132.811 217.107 132.811C216.505 132.811 216.167 132.268 216.167 131.401C216.167 130.593 216.622 128.948 216.902 128.331C217.401 127.303 218.091 126.774 218.664 126.774C219.634 126.774 219.825 127.979 219.825 128.096C219.825 128.111 219.78 128.302 219.766 128.331L219.046 131.21ZM219.986 127.45C219.825 127.068 219.428 126.481 218.664 126.481C217.004 126.481 215.212 128.625 215.212 130.799C215.212 132.253 216.064 133.105 217.063 133.105C217.871 133.105 218.561 132.474 218.973 131.989C219.12 132.855 219.81 133.105 220.251 133.105C220.691 133.105 221.044 132.841 221.308 132.312C221.543 131.813 221.749 130.917 221.749 130.858C221.749 130.784 221.69 130.726 221.602 130.726C221.47 130.726 221.455 130.799 221.396 131.019C221.176 131.886 220.897 132.811 220.295 132.811C219.869 132.811 219.839 132.43 219.839 132.136C219.839 131.798 219.883 131.636 220.016 131.063C220.118 130.696 220.192 130.373 220.309 129.947C220.853 127.744 220.985 127.215 220.985 127.127C220.985 126.921 220.823 126.76 220.603 126.76C220.133 126.76 220.016 127.274 219.986 127.45Z" fill="#3D405B"/>
<path d="M238.726 118.124C238.931 118.124 239.196 118.124 239.196 117.859C239.196 117.58 238.946 117.58 238.726 117.58H230.074C229.869 117.58 229.604 117.58 229.604 117.845C229.604 118.124 229.854 118.124 230.074 118.124H238.726ZM238.726 120.856C238.931 120.856 239.196 120.856 239.196 120.591C239.196 120.312 238.946 120.312 238.726 120.312H230.074C229.869 120.312 229.604 120.312 229.604 120.577C229.604 120.856 229.854 120.856 230.074 120.856H238.726Z" fill="#3D405B"/>
<path d="M250.467 113.321C250.467 113.041 250.467 112.968 250.262 112.968C250.144 112.968 250.1 112.968 249.982 113.144L245.561 120.004V120.43H249.424V121.766C249.424 122.31 249.395 122.457 248.323 122.457H248.029V122.883C248.367 122.853 249.527 122.853 249.938 122.853C250.35 122.853 251.525 122.853 251.863 122.883V122.457H251.569C250.511 122.457 250.467 122.31 250.467 121.766V120.43H251.951V120.004H250.467V113.321ZM249.498 114.466V120.004H245.928L249.498 114.466Z" fill="#3D405B"/>
<path d="M256.777 121.135C256.703 121.385 256.703 121.414 256.498 121.693C256.175 122.104 255.528 122.736 254.838 122.736C254.236 122.736 253.898 122.192 253.898 121.326C253.898 120.518 254.353 118.873 254.632 118.256C255.132 117.228 255.822 116.699 256.395 116.699C257.364 116.699 257.555 117.903 257.555 118.021C257.555 118.036 257.511 118.227 257.497 118.256L256.777 121.135ZM257.717 117.375C257.555 116.993 257.159 116.405 256.395 116.405C254.735 116.405 252.943 118.55 252.943 120.724C252.943 122.178 253.795 123.03 254.794 123.03C255.602 123.03 256.292 122.398 256.703 121.913C256.85 122.78 257.541 123.03 257.981 123.03C258.422 123.03 258.774 122.765 259.039 122.236C259.274 121.737 259.479 120.841 259.479 120.782C259.479 120.709 259.421 120.65 259.333 120.65C259.2 120.65 259.186 120.724 259.127 120.944C258.907 121.81 258.628 122.736 258.025 122.736C257.599 122.736 257.57 122.354 257.57 122.06C257.57 121.722 257.614 121.561 257.746 120.988C257.849 120.621 257.922 120.298 258.04 119.872C258.583 117.668 258.716 117.14 258.716 117.051C258.716 116.846 258.554 116.684 258.334 116.684C257.864 116.684 257.746 117.198 257.717 117.375Z" fill="#3D405B"/>
<path d="M266.75 114.595C266.907 114.595 267.122 114.595 267.122 114.37C267.122 114.145 266.907 114.145 266.75 114.145H261.139C260.983 114.145 260.767 114.145 260.767 114.37C260.767 114.595 260.983 114.595 261.139 114.595H266.75Z" fill="#3D405B"/>
<path d="M271.073 110.58C271.073 110.316 271.053 110.306 270.789 110.306C270.387 110.698 269.868 110.933 268.938 110.933V111.256C269.202 111.256 269.731 111.256 270.299 110.992V116.015C270.299 116.377 270.27 116.495 269.339 116.495H268.997V116.818C269.398 116.789 270.24 116.789 270.681 116.789C271.122 116.789 271.973 116.789 272.375 116.818V116.495H272.032C271.102 116.495 271.073 116.377 271.073 116.015V110.58Z" fill="#3D405B"/>
</g>
<g filter="url(#filter3_d)">
<path d="M92.5 13L159.617 129.25H25.383L92.5 13Z" fill="#EB7086"/>
<path d="M65.1371 77.3059C65.1371 77.0127 65.1371 77 64.8822 77C64.5763 77.3441 63.939 77.8157 62.6262 77.8157V78.1854C62.9194 78.1854 63.5567 78.1854 64.2577 77.854V84.4945C64.2577 84.9533 64.2194 85.1063 63.0978 85.1063H62.7027V85.4759C63.0468 85.4504 64.2832 85.4504 64.7038 85.4504C65.1244 85.4504 66.348 85.4504 66.6921 85.4759V85.1063H66.297C65.1754 85.1063 65.1371 84.9533 65.1371 84.4945V77.3059Z" fill="#3D405B"/>
<path d="M73.3146 83.3346H73.0342C72.996 83.5513 72.894 84.2523 72.7666 84.4563C72.6774 84.571 71.9508 84.571 71.5685 84.571H69.2105C69.5546 84.2778 70.3321 83.4621 70.6635 83.1562C72.6009 81.3718 73.3146 80.709 73.3146 79.4472C73.3146 77.9814 72.1548 77 70.6763 77C69.1978 77 68.3311 78.2618 68.3311 79.358C68.3311 80.008 68.8919 80.008 68.9301 80.008C69.1978 80.008 69.5292 79.8168 69.5292 79.4089C69.5292 79.0521 69.287 78.8099 68.9301 78.8099C68.8154 78.8099 68.7899 78.8099 68.7517 78.8226C68.9938 77.9559 69.6821 77.3696 70.5106 77.3696C71.594 77.3696 72.2567 78.2746 72.2567 79.4472C72.2567 80.5306 71.6322 81.4738 70.9057 82.2895L68.3311 85.17V85.4759H72.9833L73.3146 83.3346Z" fill="#3D405B"/>
<path d="M79.4128 90.6571H56V91.1669H79.4128V90.6571Z" fill="#3D405B"/>
<path d="M60.958 104.614L58.7148 99.6555C58.6255 99.4516 58.5618 99.4516 58.5236 99.4516C58.5108 99.4516 58.4471 99.4516 58.3069 99.5536L57.0961 100.471C56.9304 100.599 56.9304 100.637 56.9304 100.675C56.9304 100.739 56.9686 100.815 57.0578 100.815C57.1343 100.815 57.351 100.637 57.4912 100.535C57.5676 100.471 57.7588 100.331 57.899 100.229L60.4099 105.748C60.4992 105.952 60.5629 105.952 60.6776 105.952C60.8688 105.952 60.907 105.875 60.9963 105.697L66.7828 93.716C66.872 93.5376 66.872 93.4866 66.872 93.4611C66.872 93.3336 66.7701 93.2062 66.6171 93.2062C66.5152 93.2062 66.4259 93.2699 66.324 93.4738L60.958 104.614Z" fill="#3D405B"/>
<path d="M72.8615 93.2062H66.6215V93.716H72.8615V93.2062Z" fill="#3D405B"/>
<path d="M68.9667 99.6839C68.7501 99.6966 68.6991 99.7094 68.6991 99.8241C68.6991 99.9515 68.7628 99.9516 68.9922 99.9516H69.5785C70.6619 99.9516 71.1463 100.844 71.1463 102.067C71.1463 103.737 70.2796 104.183 69.655 104.183C69.0432 104.183 67.9981 103.89 67.6284 103.049C68.0363 103.112 68.4059 102.883 68.4059 102.424C68.4059 102.055 68.1383 101.8 67.7814 101.8C67.4755 101.8 67.1441 101.978 67.1441 102.462C67.1441 103.597 68.2785 104.527 69.6933 104.527C71.21 104.527 72.3316 103.367 72.3316 102.08C72.3316 100.907 71.3884 99.9898 70.1648 99.7731C71.2737 99.4545 71.9875 98.524 71.9875 97.5299C71.9875 96.5229 70.9423 95.7837 69.706 95.7837C68.4314 95.7837 67.4882 96.5612 67.4882 97.4916C67.4882 98.0015 67.8834 98.1034 68.0745 98.1034C68.3422 98.1034 68.6481 97.9122 68.6481 97.5299C68.6481 97.122 68.3422 96.9436 68.0618 96.9436C67.9853 96.9436 67.9598 96.9436 67.9216 96.9563C68.4059 96.0896 69.604 96.0896 69.6678 96.0896C70.0884 96.0896 70.9168 96.2808 70.9168 97.5299C70.9168 97.772 70.8786 98.4858 70.509 99.0339C70.1266 99.5947 69.6933 99.6329 69.3491 99.6457L68.9667 99.6839Z" fill="#3D405B"/>
<path d="M76.698 102.743C76.6343 102.959 76.6343 102.985 76.4559 103.227C76.1755 103.584 75.6146 104.132 75.0156 104.132C74.493 104.132 74.1999 103.66 74.1999 102.908C74.1999 102.207 74.595 100.78 74.8372 100.245C75.2705 99.3524 75.8696 98.8936 76.3666 98.8936C77.2079 98.8936 77.3736 99.9387 77.3736 100.041C77.3736 100.053 77.3353 100.219 77.3226 100.245L76.698 102.743ZM77.5138 99.4799C77.3736 99.1485 77.0294 98.6387 76.3666 98.6387C74.9264 98.6387 73.3714 100.5 73.3714 102.386C73.3714 103.648 74.1107 104.387 74.9774 104.387C75.6784 104.387 76.2774 103.839 76.6343 103.418C76.7618 104.17 77.3608 104.387 77.7432 104.387C78.1256 104.387 78.4315 104.158 78.6609 103.699C78.8648 103.265 79.0433 102.488 79.0433 102.437C79.0433 102.373 78.9923 102.322 78.9158 102.322C78.8011 102.322 78.7883 102.386 78.7374 102.577C78.5462 103.329 78.304 104.132 77.7814 104.132C77.4118 104.132 77.3863 103.801 77.3863 103.546C77.3863 103.253 77.4245 103.112 77.5393 102.615C77.6285 102.297 77.6922 102.016 77.7942 101.647C78.2658 99.7348 78.3805 99.276 78.3805 99.1995C78.3805 99.021 78.2403 98.8808 78.0491 98.8808C77.6412 98.8808 77.5393 99.3269 77.5138 99.4799Z" fill="#3D405B"/>
<path d="M93.4302 88.3374C93.4302 88.0697 93.341 87.955 93.2517 87.955C93.2008 87.955 93.086 88.006 93.0733 88.2991C93.0223 89.1786 92.1301 89.7012 91.3016 89.7012C90.5624 89.7012 89.9251 89.3061 89.2623 88.86C88.5741 88.4011 87.8858 87.9423 87.0573 87.9423C85.872 87.9423 84.9288 88.8472 84.9288 90.0198C84.9288 90.3002 85.0307 90.4022 85.1072 90.4022C85.2347 90.4022 85.2857 90.16 85.2857 90.109C85.3494 89.0384 86.3945 88.656 87.0573 88.656C87.7966 88.656 88.4339 89.0511 89.0966 89.4972C89.7849 89.9561 90.4732 90.4149 91.3016 90.4149C92.487 90.4149 93.4302 89.51 93.4302 88.3374ZM93.4302 91.3199C93.4302 90.9503 93.2772 90.9248 93.2517 90.9248C93.2008 90.9248 93.086 90.9885 93.0733 91.2689C93.0223 92.1484 92.1301 92.6709 91.3016 92.6709C90.5624 92.6709 89.9251 92.2758 89.2623 91.8297C88.5741 91.3709 87.8858 90.912 87.0573 90.912C85.872 90.912 84.9288 91.817 84.9288 92.9896C84.9288 93.27 85.0307 93.3719 85.1072 93.3719C85.2347 93.3719 85.2857 93.1298 85.2857 93.0788C85.3494 92.0082 86.3945 91.6258 87.0573 91.6258C87.7966 91.6258 88.4339 92.0209 89.0966 92.467C89.7849 92.9258 90.4732 93.3847 91.3016 93.3847C92.5125 93.3847 93.4302 92.4415 93.4302 91.3199Z" fill="#3D405B"/>
<path d="M99.2494 89.663C99.2494 86.4383 100.817 85.9285 101.505 85.9285C101.964 85.9285 102.423 86.0687 102.665 86.451C102.512 86.451 102.028 86.451 102.028 86.9736C102.028 87.254 102.219 87.4962 102.551 87.4962C102.869 87.4962 103.086 87.305 103.086 86.9354C103.086 86.2726 102.602 85.6226 101.493 85.6226C99.8867 85.6226 98.2042 87.2668 98.2042 90.0708C98.2042 93.5759 99.7337 94.3661 100.817 94.3661C102.206 94.3661 103.392 93.1553 103.392 91.4983C103.392 89.8032 102.206 88.6688 100.932 88.6688C99.7974 88.6688 99.3768 89.6502 99.2494 90.0071V89.663ZM100.817 94.022C100.014 94.022 99.6317 93.3082 99.517 93.0406C99.4023 92.7092 99.2749 92.0847 99.2749 91.1924C99.2749 90.1855 99.7337 88.9237 100.881 88.9237C101.582 88.9237 101.951 89.3953 102.143 89.8287C102.347 90.3002 102.347 90.9375 102.347 91.4856C102.347 92.1356 102.347 92.7092 102.104 93.1935C101.786 93.8053 101.327 94.022 100.817 94.022Z" fill="#3D405B"/>
<path d="M106.267 93.4867C106.267 93.1171 105.961 92.8622 105.655 92.8622C105.285 92.8622 105.031 93.1681 105.031 93.474C105.031 93.8436 105.336 94.0985 105.642 94.0985C106.012 94.0985 106.267 93.7926 106.267 93.4867Z" fill="#3D405B"/>
<path d="M112.053 90.3895C112.053 93.3975 110.715 94.022 109.95 94.022C109.644 94.022 108.969 93.9838 108.65 93.5377H108.727C108.816 93.5632 109.275 93.4867 109.275 93.0151C109.275 92.7347 109.084 92.4925 108.752 92.4925C108.421 92.4925 108.217 92.7092 108.217 93.0406C108.217 93.8308 108.854 94.3661 109.963 94.3661C111.556 94.3661 113.099 92.671 113.099 89.9051C113.099 86.4765 111.671 85.6226 110.549 85.6226C109.147 85.6226 107.911 86.7952 107.911 88.4776C107.911 90.16 109.096 91.3072 110.371 91.3072C111.314 91.3072 111.798 90.6189 112.053 89.9689V90.3895ZM110.422 91.0522C109.619 91.0522 109.275 90.4022 109.16 90.16C108.956 89.6757 108.956 89.0639 108.956 88.4904C108.956 87.7766 108.956 87.1648 109.288 86.6422C109.517 86.2981 109.861 85.9285 110.549 85.9285C111.276 85.9285 111.646 86.5657 111.773 86.8589C112.028 87.4834 112.028 88.5668 112.028 88.758C112.028 89.8287 111.544 91.0522 110.422 91.0522Z" fill="#3D405B"/>
<path d="M117.465 92.5818C117.401 92.7985 117.401 92.824 117.223 93.0661C116.942 93.423 116.382 93.9711 115.783 93.9711C115.26 93.9711 114.967 93.4995 114.967 92.7475C114.967 92.0465 115.362 90.6189 115.604 90.0836C116.037 89.1914 116.636 88.7326 117.134 88.7326C117.975 88.7326 118.14 89.7777 118.14 89.8797C118.14 89.8924 118.102 90.0581 118.089 90.0836L117.465 92.5818ZM118.281 89.3189C118.14 88.9875 117.796 88.4777 117.134 88.4777C115.693 88.4777 114.138 90.3385 114.138 92.2249C114.138 93.4867 114.878 94.226 115.744 94.226C116.445 94.226 117.044 93.6779 117.401 93.2573C117.529 94.0093 118.128 94.226 118.51 94.226C118.892 94.226 119.198 93.9966 119.428 93.5377C119.632 93.1044 119.81 92.3269 119.81 92.2759C119.81 92.2122 119.759 92.1612 119.683 92.1612C119.568 92.1612 119.555 92.2249 119.504 92.4161C119.313 93.1681 119.071 93.9711 118.548 93.9711C118.179 93.9711 118.153 93.6397 118.153 93.3848C118.153 93.0916 118.191 92.9514 118.306 92.4543C118.395 92.1357 118.459 91.8553 118.561 91.4857C119.033 89.5738 119.147 89.1149 119.147 89.0385C119.147 88.86 119.007 88.7198 118.816 88.7198C118.408 88.7198 118.306 89.1659 118.281 89.3189Z" fill="#3D405B"/>
<path d="M126.119 86.9071C126.255 86.9071 126.442 86.9071 126.442 86.7117C126.442 86.5162 126.255 86.5162 126.119 86.5162H121.25C121.114 86.5162 120.927 86.5162 120.927 86.7117C120.927 86.9071 121.114 86.9071 121.25 86.9071H126.119Z" fill="#3D405B"/>
<path d="M129.87 83.4232C129.87 83.1938 129.853 83.1853 129.623 83.1853C129.275 83.5252 128.825 83.7291 128.017 83.7291V84.0095C128.247 84.0095 128.706 84.0095 129.199 83.7801V88.1391C129.199 88.4535 129.173 88.5555 128.366 88.5555H128.068V88.8359C128.417 88.8104 129.148 88.8104 129.53 88.8104C129.912 88.8104 130.652 88.8104 131 88.8359V88.5555H130.703C129.895 88.5555 129.87 88.4535 129.87 88.1391V83.4232Z" fill="#3D405B"/>
</g>
<defs>
<filter id="filter0_d" x="0" y="0" width="330" height="346" filterUnits="userSpaceOnUse" color-interpolation-filters="sRGB">
<feFlood flood-opacity="0" result="BackgroundImageFix"/>
<feColorMatrix in="SourceAlpha" type="matrix" values="0 0 0 0 0 0 0 0 0 0 0 0 0 0 0 0 0 0 127 0"/>
<feOffset dy="5"/>
<feGaussianBlur stdDeviation="4"/>
<feColorMatrix type="matrix" values="0 0 0 0 0 0 0 0 0 0 0 0 0 0 0 0 0 0 0.25 0"/>
<feBlend mode="normal" in2="BackgroundImageFix" result="effect1_dropShadow"/>
<feBlend mode="normal" in="SourceGraphic" in2="effect1_dropShadow" result="shape"/>
</filter>
<filter id="filter1_d" x="55.6462" y="168" width="132.708" height="152" filterUnits="userSpaceOnUse" color-interpolation-filters="sRGB">
<feFlood flood-opacity="0" result="BackgroundImageFix"/>
<feColorMatrix in="SourceAlpha" type="matrix" values="0 0 0 0 0 0 0 0 0 0 0 0 0 0 0 0 0 0 127 0"/>
<feOffset dy="4"/>
<feGaussianBlur stdDeviation="2"/>
<feColorMatrix type="matrix" values="0 0 0 0 0 0 0 0 0 0 0 0 0 0 0 0 0 0 0.25 0"/>
<feBlend mode="normal" in2="BackgroundImageFix" result="effect1_dropShadow"/>
<feBlend mode="normal" in="SourceGraphic" in2="effect1_dropShadow" result="shape"/>
</filter>
<filter id="filter2_d" x="190" y="69" width="107" height="107" filterUnits="userSpaceOnUse" color-interpolation-filters="sRGB">
<feFlood flood-opacity="0" result="BackgroundImageFix"/>
<feColorMatrix in="SourceAlpha" type="matrix" values="0 0 0 0 0 0 0 0 0 0 0 0 0 0 0 0 0 0 127 0"/>
<feOffset dy="4"/>
<feGaussianBlur stdDeviation="2"/>
<feColorMatrix type="matrix" values="0 0 0 0 0 0 0 0 0 0 0 0 0 0 0 0 0 0 0.25 0"/>
<feBlend mode="normal" in2="BackgroundImageFix" result="effect1_dropShadow"/>
<feBlend mode="normal" in="SourceGraphic" in2="effect1_dropShadow" result="shape"/>
</filter>
<filter id="filter3_d" x="21.3831" y="13" width="142.234" height="124.25" filterUnits="userSpaceOnUse" color-interpolation-filters="sRGB">
<feFlood flood-opacity="0" result="BackgroundImageFix"/>
<feColorMatrix in="SourceAlpha" type="matrix" values="0 0 0 0 0 0 0 0 0 0 0 0 0 0 0 0 0 0 127 0"/>
<feOffset dy="4"/>
<feGaussianBlur stdDeviation="2"/>
<feColorMatrix type="matrix" values="0 0 0 0 0 0 0 0 0 0 0 0 0 0 0 0 0 0 0.25 0"/>
<feBlend mode="normal" in2="BackgroundImageFix" result="effect1_dropShadow"/>
<feBlend mode="normal" in="SourceGraphic" in2="effect1_dropShadow" result="shape"/>
</filter>
</defs>
</svg>
