<svg width="620" height="317" viewBox="0 0 620 317" fill="none" xmlns="http://www.w3.org/2000/svg">
<path d="M214.963 46.4179L272.772 79.8161V146.613L214.963 180.011L157.155 146.613V79.8161L214.963 46.4179Z" fill="#8478B3"/>
<path d="M534.58 41.8893L587.98 72.7402V134.442L534.58 165.293L481.181 134.442V72.7402L534.58 41.8893Z" fill="#77CAD0"/>
<path d="M390.894 138.121L458.011 176.897V254.449L390.894 293.225L323.777 254.449V176.897L390.894 138.121Z" fill="#77CAD0"/>
<path d="M273.796 151.707L318.867 177.746V229.825L273.796 255.864L228.724 229.825V177.746L273.796 151.707Z" fill="#CBD9C9"/>
<path d="M106.35 53.2107L152.401 79.8161V133.027L106.35 159.632L60.2993 133.027V79.8161L106.35 53.2107Z" fill="#CBD9C9"/>
<path d="M435.018 62.2679L476.66 86.3259V134.442L435.018 158.5L393.376 134.442V86.3259L435.018 62.2679Z" fill="#8478B3"/>
<path d="M155 12.4536L182.435 28.3036V60.0036L155 75.8536L127.565 60.0036V28.3036L155 12.4536Z" fill="#77CAD0"/>
<path d="M362.609 89.4393L388.574 104.44V134.442L362.609 149.443L336.644 134.442V104.44L362.609 89.4393Z" fill="#EB7086"/>
<path d="M590.018 138.121L615.983 153.122V183.124L590.018 198.125L564.053 183.124V153.122L590.018 138.121Z" fill="#8478B3"/>
<path d="M29.9818 88.3072L55.9467 103.308V133.31L29.9818 148.311L4.01679 133.31V103.308L29.9818 88.3072Z" fill="#EB7086"/>
<path d="M509.69 0L532.715 13.3027V39.908L509.69 53.2107L486.664 39.908V13.3027L509.69 0Z" fill="#CBD9C9"/>
<path d="M460.474 258.129L485.949 272.846V302.282L460.474 317L434.999 302.282V272.846L460.474 258.129Z" fill="#F5BA93"/>
<path d="M58.2664 136.989L74.4333 146.046V164.161L58.2664 173.218L42.0996 164.161V146.046L58.2664 136.989Z" fill="#F5BA93"/>
<path d="M475.183 233.221L487.92 240.297V254.449L475.183 261.525L462.445 254.449V240.297L475.183 233.221Z" fill="#CBD9C9"/>
<path d="M605.292 113.214L618.029 120.29V134.442L605.292 141.518L592.554 134.442V120.29L605.292 113.214Z" fill="#CBD9C9"/>
<path d="M548.723 20.3786L560.48 26.8884V39.908L548.723 46.4179L536.965 39.908V26.8884L548.723 20.3786Z" fill="#F5BA93"/>
</svg>
