<svg width="322" height="236" viewBox="0 0 322 236" fill="none" xmlns="http://www.w3.org/2000/svg">
<g filter="url(#filter0_d)">
<rect x="4" width="314" height="227.823" rx="3" fill="#F5BA93"/>
<mask id="mask0" mask-type="alpha" maskUnits="userSpaceOnUse" x="4" y="0" width="314" height="228">
<rect x="4" width="314" height="227.823" rx="3" fill="#F5BA93"/>
</mask>
<g mask="url(#mask0)">
<path fill-rule="evenodd" clip-rule="evenodd" d="M93.7682 22.7291L77.4029 32.1768L55.0895 28.743L49.1414 15.8615L65.5067 6.41376L87.8201 9.84758L93.7682 22.7291Z" fill="#F5BA93" stroke="#F4F1DE" stroke-width="5" stroke-linejoin="round"/>
<path fill-rule="evenodd" clip-rule="evenodd" d="M44.6725 51.072L28.3072 60.5197L5.99376 57.0859L0.0457047 44.2044L16.411 34.7567L38.7244 38.1905L44.6725 51.072Z" fill="#F5BA93" stroke="#F4F1DE" stroke-width="5" stroke-linejoin="round"/>
<path fill-rule="evenodd" clip-rule="evenodd" d="M-38.6333 50.2183L-22.2679 40.7706L0.0454758 44.2044L5.99353 57.0859L-10.3718 66.5336L-32.6852 63.0998L-38.6333 50.2183Z" fill="#F5BA93" stroke="#F4F1DE" stroke-width="5" stroke-linejoin="round"/>
<path fill-rule="evenodd" clip-rule="evenodd" d="M10.4629 21.8751L26.8283 12.4274L49.1417 15.8612L55.0897 28.7428L38.7244 38.1905L16.411 34.7567L10.4629 21.8751Z" fill="#F5BA93" stroke="#F4F1DE" stroke-width="5" stroke-linejoin="round"/>
<path fill-rule="evenodd" clip-rule="evenodd" d="M65.5068 6.41373L49.1414 15.8614L26.828 12.4276L20.8985 -0.443214L37.2638 -9.89092L59.5587 -6.46779L65.5068 6.41373Z" fill="#F5BA93" stroke="#F4F1DE" stroke-width="5" stroke-linejoin="round"/>
<path fill-rule="evenodd" clip-rule="evenodd" d="M16.4111 34.7566L0.0457357 44.2043L-22.2677 40.7705L-28.1972 27.8997L-11.8319 18.452L10.463 21.8751L16.4111 34.7566Z" fill="#F5BA93" stroke="#F4F1DE" stroke-width="5" stroke-linejoin="round"/>
<path fill-rule="evenodd" clip-rule="evenodd" d="M-17.78 5.57046L-1.41464 -3.87725L20.8987 -0.443438L26.8283 12.4274L10.463 21.8751L-11.8319 18.452L-17.78 5.57046Z" fill="#F5BA93" stroke="#F4F1DE" stroke-width="5" stroke-linejoin="round"/>
<path fill-rule="evenodd" clip-rule="evenodd" d="M37.2636 -9.8909L20.8982 -0.443189L-1.41518 -3.877L-7.36323 -16.7585L9.0021 -26.2062L31.3155 -22.7724L37.2636 -9.8909Z" fill="#F5BA93" stroke="#F4F1DE" stroke-width="5" stroke-linejoin="round"/>
<path fill-rule="evenodd" clip-rule="evenodd" d="M142.871 -5.61807L126.506 3.82964L104.192 0.395826L98.2442 -12.4857L114.61 -21.9334L136.923 -18.4996L142.871 -5.61807Z" fill="#F5BA93" stroke="#F4F1DE" stroke-width="5" stroke-linejoin="round"/>
<path fill-rule="evenodd" clip-rule="evenodd" d="M59.5584 -6.46787L75.9237 -15.9156L98.2371 -12.4818L104.185 0.399753L87.8198 9.84746L65.5065 6.41365L59.5584 -6.46787Z" fill="#F5BA93" stroke="#F4F1DE" stroke-width="5" stroke-linejoin="round"/>
<path fill-rule="evenodd" clip-rule="evenodd" d="M31.3155 -22.7724L47.6808 -32.2201L69.9942 -28.7863L75.9238 -15.9155L59.5584 -6.46778L37.2635 -9.89092L31.3155 -22.7724Z" fill="#F5BA93" stroke="#F4F1DE" stroke-width="5" stroke-linejoin="round"/>
<path fill-rule="evenodd" clip-rule="evenodd" d="M139.724 77.5199L123.358 86.9676L101.045 83.5338L95.097 70.6522L111.462 61.2045L133.776 64.6383L139.724 77.5199Z" fill="#F5BA93" stroke="#F4F1DE" stroke-width="5" stroke-linejoin="round"/>
<path fill-rule="evenodd" clip-rule="evenodd" d="M90.6283 105.863L74.263 115.31L51.9496 111.877L46.0015 98.9951L62.3669 89.5474L84.6802 92.9812L90.6283 105.863Z" fill="#F5BA93" stroke="#F4F1DE" stroke-width="5" stroke-linejoin="round"/>
<path fill-rule="evenodd" clip-rule="evenodd" d="M56.4185 76.6659L72.7838 67.2182L95.0972 70.652L101.045 83.5335L84.68 92.9812L62.3666 89.5474L56.4185 76.6659Z" fill="#F5BA93" stroke="#F4F1DE" stroke-width="5" stroke-linejoin="round"/>
<path fill-rule="evenodd" clip-rule="evenodd" d="M111.462 61.2045L95.0968 70.6522L72.7834 67.2184L66.8538 54.3476L83.2191 44.8998L105.514 48.323L111.462 61.2045Z" fill="#F5BA93" stroke="#F4F1DE" stroke-width="5" stroke-linejoin="round"/>
<path fill-rule="evenodd" clip-rule="evenodd" d="M62.3666 89.5474L46.0013 98.9951L23.6879 95.5613L17.7584 82.6905L34.1237 73.2427L56.4186 76.6659L62.3666 89.5474Z" fill="#F5BA93" stroke="#F4F1DE" stroke-width="5" stroke-linejoin="round"/>
<path fill-rule="evenodd" clip-rule="evenodd" d="M28.1753 60.3612L44.5407 50.9135L66.8541 54.3473L72.7836 67.2182L56.4183 76.6659L34.1234 73.2427L28.1753 60.3612Z" fill="#F5BA93" stroke="#F4F1DE" stroke-width="5" stroke-linejoin="round"/>
<path fill-rule="evenodd" clip-rule="evenodd" d="M83.2194 44.8999L66.854 54.3476L44.5406 50.9138L38.5926 38.0322L54.9579 28.5845L77.2713 32.0184L83.2194 44.8999Z" fill="#F5BA93" stroke="#F4F1DE" stroke-width="5" stroke-linejoin="round"/>
<path fill-rule="evenodd" clip-rule="evenodd" d="M188.827 49.1727L172.461 58.6204L150.148 55.1866L144.2 42.3051L160.565 32.8574L182.879 36.2912L188.827 49.1727Z" fill="#F5BA93" stroke="#F4F1DE" stroke-width="5" stroke-linejoin="round"/>
<path fill-rule="evenodd" clip-rule="evenodd" d="M160.565 32.8573L144.2 42.305L121.887 38.8712L115.957 26.0004L132.322 16.5527L154.617 19.9758L160.565 32.8573Z" fill="#F5BA93" stroke="#F4F1DE" stroke-width="5" stroke-linejoin="round"/>
<path fill-rule="evenodd" clip-rule="evenodd" d="M132.322 16.5527L115.957 26.0004L93.6437 22.5666L87.6956 9.68508L104.061 0.237373L126.374 3.67119L132.322 16.5527Z" fill="#F5BA93" stroke="#F4F1DE" stroke-width="5" stroke-linejoin="round"/>
<path fill-rule="evenodd" clip-rule="evenodd" d="M34.1237 73.2428L17.7583 82.6905L-4.55507 79.2567L-10.5031 66.3751L5.86221 56.9274L28.1756 60.3612L34.1237 73.2428Z" fill="#F5BA93" stroke="#F4F1DE" stroke-width="5" stroke-linejoin="round"/>
<path fill-rule="evenodd" clip-rule="evenodd" d="M287.082 -7.54995L270.717 1.89775L248.403 -1.53606L242.455 -14.4176L258.82 -23.8653L281.134 -20.4315L287.082 -7.54995Z" fill="#F5BA93" stroke="#F4F1DE" stroke-width="5" stroke-linejoin="round"/>
<path fill-rule="evenodd" clip-rule="evenodd" d="M237.986 20.7929L221.621 30.2406L199.307 26.8068L193.359 13.9253L209.725 4.47761L232.038 7.91142L237.986 20.7929Z" fill="#F5BA93" stroke="#F4F1DE" stroke-width="5" stroke-linejoin="round"/>
<path fill-rule="evenodd" clip-rule="evenodd" d="M154.68 19.9392L171.046 10.4915L193.359 13.9253L199.307 26.8069L182.942 36.2546L160.629 32.8208L154.68 19.9392Z" fill="#F5BA93" stroke="#F4F1DE" stroke-width="5" stroke-linejoin="round"/>
<path fill-rule="evenodd" clip-rule="evenodd" d="M203.777 -8.40403L220.142 -17.8517L242.456 -14.4179L248.404 -1.5364L232.038 7.9113L209.725 4.47749L203.777 -8.40403Z" fill="#F5BA93" stroke="#F4F1DE" stroke-width="5" stroke-linejoin="round"/>
<path fill-rule="evenodd" clip-rule="evenodd" d="M209.725 4.47758L193.359 13.9253L171.046 10.4915L165.117 -2.37937L181.482 -11.8271L203.777 -8.40394L209.725 4.47758Z" fill="#F5BA93" stroke="#F4F1DE" stroke-width="5" stroke-linejoin="round"/>
<path fill-rule="evenodd" clip-rule="evenodd" d="M126.438 3.63454L142.803 -5.81316L165.116 -2.37935L171.046 10.4915L154.681 19.9392L132.386 16.5161L126.438 3.63454Z" fill="#F5BA93" stroke="#F4F1DE" stroke-width="5" stroke-linejoin="round"/>
<path fill-rule="evenodd" clip-rule="evenodd" d="M181.482 -11.8271L165.116 -2.37935L142.803 -5.81316L136.855 -18.6947L153.22 -28.1424L175.534 -24.7086L181.482 -11.8271Z" fill="#F5BA93" stroke="#F4F1DE" stroke-width="5" stroke-linejoin="round"/>
<path fill-rule="evenodd" clip-rule="evenodd" d="M105.514 48.3229L121.88 38.8752L144.193 42.309L150.141 55.1905L133.776 64.6382L111.462 61.2044L105.514 48.3229Z" fill="#F5BA93" stroke="#F4F1DE" stroke-width="5" stroke-linejoin="round"/>
<path fill-rule="evenodd" clip-rule="evenodd" d="M77.2713 32.0182L93.6366 22.5705L115.95 26.0043L121.88 38.8752L105.514 48.3229L83.2193 44.8997L77.2713 32.0182Z" fill="#F5BA93" stroke="#F4F1DE" stroke-width="5" stroke-linejoin="round"/>
<path fill-rule="evenodd" clip-rule="evenodd" d="M345.467 168.035L329.102 177.482L306.788 174.049L300.84 161.167L317.205 151.719L339.519 155.153L345.467 168.035Z" fill="#F5BA93" stroke="#F4F1DE" stroke-width="5" stroke-linejoin="round"/>
<path fill-rule="evenodd" clip-rule="evenodd" d="M296.371 196.378L280.006 205.825L257.692 202.392L251.744 189.51L268.11 180.062L290.423 183.496L296.371 196.378Z" fill="#F5BA93" stroke="#F4F1DE" stroke-width="5" stroke-linejoin="round"/>
<path fill-rule="evenodd" clip-rule="evenodd" d="M342.327 251.168L325.962 260.616L303.648 257.182L297.7 244.301L314.066 234.853L336.379 238.287L342.327 251.168Z" fill="#F5BA93" stroke="#F4F1DE" stroke-width="5" stroke-linejoin="round"/>
<path fill-rule="evenodd" clip-rule="evenodd" d="M308.117 221.972L324.483 212.524L346.796 215.958L352.744 228.839L336.379 238.287L314.065 234.853L308.117 221.972Z" fill="#F5BA93" stroke="#F4F1DE" stroke-width="5" stroke-linejoin="round"/>
<path fill-rule="evenodd" clip-rule="evenodd" d="M363.161 206.51L346.795 215.958L324.482 212.524L318.553 199.653L334.918 190.206L357.213 193.629L363.161 206.51Z" fill="#F5BA93" stroke="#F4F1DE" stroke-width="5" stroke-linejoin="round"/>
<path fill-rule="evenodd" clip-rule="evenodd" d="M314.065 234.853L297.7 244.301L275.386 240.867L269.457 227.996L285.822 218.548L308.117 221.971L314.065 234.853Z" fill="#F5BA93" stroke="#F4F1DE" stroke-width="5" stroke-linejoin="round"/>
<path fill-rule="evenodd" clip-rule="evenodd" d="M279.874 205.667L296.24 196.219L318.553 199.653L324.483 212.524L308.117 221.972L285.822 218.548L279.874 205.667Z" fill="#F5BA93" stroke="#F4F1DE" stroke-width="5" stroke-linejoin="round"/>
<path fill-rule="evenodd" clip-rule="evenodd" d="M334.918 190.206L318.552 199.653L296.239 196.219L290.291 183.338L306.656 173.89L328.97 177.324L334.918 190.206Z" fill="#F5BA93" stroke="#F4F1DE" stroke-width="5" stroke-linejoin="round"/>
<path fill-rule="evenodd" clip-rule="evenodd" d="M285.822 218.548L269.457 227.996L247.144 224.562L241.196 211.681L257.561 202.233L279.874 205.667L285.822 218.548Z" fill="#F5BA93" stroke="#F4F1DE" stroke-width="5" stroke-linejoin="round"/>
<path fill-rule="evenodd" clip-rule="evenodd" d="M328.97 177.324L345.335 167.876L367.649 171.31L373.578 184.181L357.213 193.629L334.918 190.205L328.97 177.324Z" fill="#F5BA93" stroke="#F4F1DE" stroke-width="5" stroke-linejoin="round"/>
<path fill-rule="evenodd" clip-rule="evenodd" d="M178.128 71.43L161.762 80.8777L139.449 77.4439L133.501 64.5624L149.866 55.1147L172.18 58.5485L178.128 71.43Z" fill="#F5BA93" stroke="#F4F1DE" stroke-width="5" stroke-linejoin="round"/>
<path fill-rule="evenodd" clip-rule="evenodd" d="M129.032 99.7729L112.667 109.221L90.3536 105.787L84.4056 92.9053L100.771 83.4576L123.084 86.8914L129.032 99.7729Z" fill="#F5BA93" stroke="#F4F1DE" stroke-width="5" stroke-linejoin="round"/>
<path fill-rule="evenodd" clip-rule="evenodd" d="M227.231 43.0829L210.866 52.5306L188.552 49.0968L182.604 36.2152L198.969 26.7675L221.283 30.2013L227.231 43.0829Z" fill="#F5BA93" stroke="#F4F1DE" stroke-width="5" stroke-linejoin="round"/>
<path fill-rule="evenodd" clip-rule="evenodd" d="M325.486 -13.6398L309.121 -4.19209L286.808 -7.6259L280.86 -20.5074L297.225 -29.9551L319.538 -26.5213L325.486 -13.6398Z" fill="#F5BA93" stroke="#F4F1DE" stroke-width="5" stroke-linejoin="round"/>
<path fill-rule="evenodd" clip-rule="evenodd" d="M276.39 14.7031L260.025 24.1508L237.712 20.717L231.763 7.83547L248.129 -1.61224L270.442 1.82158L276.39 14.7031Z" fill="#F5BA93" stroke="#F4F1DE" stroke-width="5" stroke-linejoin="round"/>
<path fill-rule="evenodd" clip-rule="evenodd" d="M224.084 126.221L207.718 135.669L185.405 132.235L179.457 119.353L195.822 109.905L218.136 113.339L224.084 126.221Z" fill="#F5BA93" stroke="#F4F1DE" stroke-width="5" stroke-linejoin="round"/>
<path fill-rule="evenodd" clip-rule="evenodd" d="M174.988 154.564L158.623 164.011L136.309 160.578L130.361 147.696L146.727 138.248L169.04 141.682L174.988 154.564Z" fill="#F5BA93" stroke="#F4F1DE" stroke-width="5" stroke-linejoin="round"/>
<path fill-rule="evenodd" clip-rule="evenodd" d="M140.778 125.367L157.144 115.919L179.457 119.353L185.405 132.234L169.04 141.682L146.726 138.248L140.778 125.367Z" fill="#F5BA93" stroke="#F4F1DE" stroke-width="5" stroke-linejoin="round"/>
<path fill-rule="evenodd" clip-rule="evenodd" d="M195.822 109.905L179.457 119.353L157.143 115.919L151.214 103.048L167.579 93.6008L189.874 97.0239L195.822 109.905Z" fill="#F5BA93" stroke="#F4F1DE" stroke-width="5" stroke-linejoin="round"/>
<path fill-rule="evenodd" clip-rule="evenodd" d="M146.727 138.248L130.361 147.696L108.048 144.262L102.118 131.391L118.484 121.944L140.778 125.367L146.727 138.248Z" fill="#F5BA93" stroke="#F4F1DE" stroke-width="5" stroke-linejoin="round"/>
<path fill-rule="evenodd" clip-rule="evenodd" d="M309.059 -3.98032L325.424 -13.428L347.737 -9.99422L353.667 2.87662L337.302 12.3243L315.007 8.9012L309.059 -3.98032Z" fill="#F5BA93" stroke="#F4F1DE" stroke-width="5" stroke-linejoin="round"/>
<path fill-rule="evenodd" clip-rule="evenodd" d="M112.536 109.062L128.901 99.6144L151.214 103.048L157.144 115.919L140.779 125.367L118.484 121.944L112.536 109.062Z" fill="#F5BA93" stroke="#F4F1DE" stroke-width="5" stroke-linejoin="round"/>
<path fill-rule="evenodd" clip-rule="evenodd" d="M167.579 93.6008L151.214 103.049L128.9 99.6147L122.952 86.7332L139.318 77.2855L161.631 80.7193L167.579 93.6008Z" fill="#F5BA93" stroke="#F4F1DE" stroke-width="5" stroke-linejoin="round"/>
<path fill-rule="evenodd" clip-rule="evenodd" d="M273.187 97.8736L256.821 107.321L234.508 103.888L228.56 91.006L244.925 81.5583L267.239 84.9921L273.187 97.8736Z" fill="#F5BA93" stroke="#F4F1DE" stroke-width="5" stroke-linejoin="round"/>
<path fill-rule="evenodd" clip-rule="evenodd" d="M244.925 81.5583L228.56 91.006L206.247 87.5722L200.317 74.7013L216.682 65.2536L238.977 68.6767L244.925 81.5583Z" fill="#F5BA93" stroke="#F4F1DE" stroke-width="5" stroke-linejoin="round"/>
<path fill-rule="evenodd" clip-rule="evenodd" d="M216.682 65.2536L200.317 74.7013L178.004 71.2675L172.055 58.386L188.421 48.9383L210.734 52.3721L216.682 65.2536Z" fill="#F5BA93" stroke="#F4F1DE" stroke-width="5" stroke-linejoin="round"/>
<path fill-rule="evenodd" clip-rule="evenodd" d="M118.484 121.944L102.118 131.391L79.805 127.958L73.857 115.076L90.2223 105.628L112.536 109.062L118.484 121.944Z" fill="#F5BA93" stroke="#F4F1DE" stroke-width="5" stroke-linejoin="round"/>
<path fill-rule="evenodd" clip-rule="evenodd" d="M371.442 41.151L355.076 50.5987L332.763 47.1649L326.815 34.2833L343.18 24.8356L365.494 28.2695L371.442 41.151Z" fill="#F5BA93" stroke="#F4F1DE" stroke-width="5" stroke-linejoin="round"/>
<path fill-rule="evenodd" clip-rule="evenodd" d="M322.346 69.4939L305.98 78.9416L283.667 75.5078L277.719 62.6262L294.084 53.1785L316.398 56.6123L322.346 69.4939Z" fill="#F5BA93" stroke="#F4F1DE" stroke-width="5" stroke-linejoin="round"/>
<path fill-rule="evenodd" clip-rule="evenodd" d="M239.04 68.6402L255.406 59.1925L277.719 62.6263L283.667 75.5078L267.302 84.9555L244.988 81.5217L239.04 68.6402Z" fill="#F5BA93" stroke="#F4F1DE" stroke-width="5" stroke-linejoin="round"/>
<path fill-rule="evenodd" clip-rule="evenodd" d="M288.137 40.297L304.502 30.8493L326.815 34.2831L332.764 47.1646L316.398 56.6124L294.085 53.1785L288.137 40.297Z" fill="#F5BA93" stroke="#F4F1DE" stroke-width="5" stroke-linejoin="round"/>
<path fill-rule="evenodd" clip-rule="evenodd" d="M343.18 24.8356L326.815 34.2833L304.501 30.8495L298.572 17.9787L314.937 8.53095L337.232 11.9541L343.18 24.8356Z" fill="#F5BA93" stroke="#F4F1DE" stroke-width="5" stroke-linejoin="round"/>
<path fill-rule="evenodd" clip-rule="evenodd" d="M294.085 53.1785L277.719 62.6262L255.406 59.1924L249.476 46.3216L265.842 36.8738L288.137 40.297L294.085 53.1785Z" fill="#F5BA93" stroke="#F4F1DE" stroke-width="5" stroke-linejoin="round"/>
<path fill-rule="evenodd" clip-rule="evenodd" d="M210.798 52.3356L227.163 42.8879L249.476 46.3217L255.406 59.1925L239.041 68.6402L216.746 65.2171L210.798 52.3356Z" fill="#F5BA93" stroke="#F4F1DE" stroke-width="5" stroke-linejoin="round"/>
<path fill-rule="evenodd" clip-rule="evenodd" d="M259.894 23.9923L276.259 14.5446L298.572 17.9784L304.502 30.8493L288.137 40.297L265.842 36.8739L259.894 23.9923Z" fill="#F5BA93" stroke="#F4F1DE" stroke-width="5" stroke-linejoin="round"/>
<path fill-rule="evenodd" clip-rule="evenodd" d="M314.937 8.53098L298.572 17.9787L276.259 14.5449L270.311 1.66335L286.676 -7.78436L308.989 -4.35054L314.937 8.53098Z" fill="#F5BA93" stroke="#F4F1DE" stroke-width="5" stroke-linejoin="round"/>
<path fill-rule="evenodd" clip-rule="evenodd" d="M265.842 36.8739L249.477 46.3216L227.163 42.8878L221.215 30.0062L237.58 20.5585L259.894 23.9924L265.842 36.8739Z" fill="#F5BA93" stroke="#F4F1DE" stroke-width="5" stroke-linejoin="round"/>
<path fill-rule="evenodd" clip-rule="evenodd" d="M189.874 97.0238L206.239 87.5761L228.553 91.0099L234.501 103.891L218.136 113.339L195.822 109.905L189.874 97.0238Z" fill="#F5BA93" stroke="#F4F1DE" stroke-width="5" stroke-linejoin="round"/>
<path fill-rule="evenodd" clip-rule="evenodd" d="M161.631 80.7193L177.997 71.2716L200.31 74.7054L206.24 87.5762L189.874 97.0239L167.579 93.6008L161.631 80.7193Z" fill="#F5BA93" stroke="#F4F1DE" stroke-width="5" stroke-linejoin="round"/>
<path fill-rule="evenodd" clip-rule="evenodd" d="M262.047 119.877L245.682 129.324L223.369 125.89L217.42 113.009L233.786 103.561L256.099 106.995L262.047 119.877Z" fill="#F5BA93" stroke="#F4F1DE" stroke-width="5" stroke-linejoin="round"/>
<path fill-rule="evenodd" clip-rule="evenodd" d="M212.952 148.219L196.586 157.667L174.273 154.233L168.325 141.352L184.69 131.904L207.003 135.338L212.952 148.219Z" fill="#F5BA93" stroke="#F4F1DE" stroke-width="5" stroke-linejoin="round"/>
<path fill-rule="evenodd" clip-rule="evenodd" d="M311.15 91.5294L294.785 100.977L272.471 97.5433L266.523 84.6618L282.889 75.2141L305.202 78.6479L311.15 91.5294Z" fill="#F5BA93" stroke="#F4F1DE" stroke-width="5" stroke-linejoin="round"/>
<path fill-rule="evenodd" clip-rule="evenodd" d="M360.309 63.1496L343.944 72.5973L321.631 69.1635L315.683 56.282L332.048 46.8343L354.361 50.2681L360.309 63.1496Z" fill="#F5BA93" stroke="#F4F1DE" stroke-width="5" stroke-linejoin="round"/>
<path fill-rule="evenodd" clip-rule="evenodd" d="M308.003 174.667L291.638 184.115L269.324 180.681L263.376 167.8L279.742 158.352L302.055 161.786L308.003 174.667Z" fill="#F5BA93" stroke="#F4F1DE" stroke-width="5" stroke-linejoin="round"/>
<path fill-rule="evenodd" clip-rule="evenodd" d="M258.907 203.01L242.542 212.458L220.228 209.024L214.28 196.143L230.646 186.695L252.959 190.129L258.907 203.01Z" fill="#F5BA93" stroke="#F4F1DE" stroke-width="5" stroke-linejoin="round"/>
<path fill-rule="evenodd" clip-rule="evenodd" d="M224.698 173.813L241.063 164.366L263.376 167.799L269.324 180.681L252.959 190.129L230.646 186.695L224.698 173.813Z" fill="#F5BA93" stroke="#F4F1DE" stroke-width="5" stroke-linejoin="round"/>
<path fill-rule="evenodd" clip-rule="evenodd" d="M279.741 158.352L263.376 167.8L241.062 164.366L235.133 151.495L251.498 142.047L273.793 145.47L279.741 158.352Z" fill="#F5BA93" stroke="#F4F1DE" stroke-width="5" stroke-linejoin="round"/>
<path fill-rule="evenodd" clip-rule="evenodd" d="M230.646 186.695L214.28 196.143L191.967 192.709L186.037 179.838L202.403 170.39L224.698 173.813L230.646 186.695Z" fill="#F5BA93" stroke="#F4F1DE" stroke-width="5" stroke-linejoin="round"/>
<path fill-rule="evenodd" clip-rule="evenodd" d="M196.455 157.509L212.82 148.061L235.133 151.495L241.063 164.366L224.698 173.813L202.403 170.39L196.455 157.509Z" fill="#F5BA93" stroke="#F4F1DE" stroke-width="5" stroke-linejoin="round"/>
<path fill-rule="evenodd" clip-rule="evenodd" d="M251.498 142.047L235.133 151.495L212.819 148.061L206.871 135.18L223.237 125.732L245.55 129.166L251.498 142.047Z" fill="#F5BA93" stroke="#F4F1DE" stroke-width="5" stroke-linejoin="round"/>
<path fill-rule="evenodd" clip-rule="evenodd" d="M357.106 146.32L340.741 155.768L318.427 152.334L312.479 139.453L328.844 130.005L351.158 133.439L357.106 146.32Z" fill="#F5BA93" stroke="#F4F1DE" stroke-width="5" stroke-linejoin="round"/>
<path fill-rule="evenodd" clip-rule="evenodd" d="M328.844 130.005L312.479 139.453L290.166 136.019L284.236 123.148L300.601 113.7L322.896 117.123L328.844 130.005Z" fill="#F5BA93" stroke="#F4F1DE" stroke-width="5" stroke-linejoin="round"/>
<path fill-rule="evenodd" clip-rule="evenodd" d="M300.601 113.7L284.236 123.148L261.923 119.714L255.975 106.833L272.34 97.3848L294.653 100.819L300.601 113.7Z" fill="#F5BA93" stroke="#F4F1DE" stroke-width="5" stroke-linejoin="round"/>
<path fill-rule="evenodd" clip-rule="evenodd" d="M202.403 170.39L186.037 179.838L163.724 176.404L157.776 163.523L174.141 154.075L196.455 157.509L202.403 170.39Z" fill="#F5BA93" stroke="#F4F1DE" stroke-width="5" stroke-linejoin="round"/>
<path fill-rule="evenodd" clip-rule="evenodd" d="M322.96 117.087L339.325 107.639L361.638 111.073L367.586 123.954L351.221 133.402L328.908 129.968L322.96 117.087Z" fill="#F5BA93" stroke="#F4F1DE" stroke-width="5" stroke-linejoin="round"/>
<path fill-rule="evenodd" clip-rule="evenodd" d="M294.717 100.782L311.082 91.3343L333.395 94.7681L339.325 107.639L322.96 117.087L300.665 113.664L294.717 100.782Z" fill="#F5BA93" stroke="#F4F1DE" stroke-width="5" stroke-linejoin="round"/>
<path fill-rule="evenodd" clip-rule="evenodd" d="M349.761 85.3204L333.395 94.7681L311.082 91.3343L305.134 78.4528L321.499 69.0051L343.813 72.4389L349.761 85.3204Z" fill="#F5BA93" stroke="#F4F1DE" stroke-width="5" stroke-linejoin="round"/>
<path fill-rule="evenodd" clip-rule="evenodd" d="M273.793 145.47L290.159 136.023L312.472 139.456L318.42 152.338L302.055 161.786L279.741 158.352L273.793 145.47Z" fill="#F5BA93" stroke="#F4F1DE" stroke-width="5" stroke-linejoin="round"/>
<path fill-rule="evenodd" clip-rule="evenodd" d="M245.55 129.166L261.915 119.718L284.229 123.152L290.158 136.023L273.793 145.47L251.498 142.047L245.55 129.166Z" fill="#F5BA93" stroke="#F4F1DE" stroke-width="5" stroke-linejoin="round"/>
<path fill-rule="evenodd" clip-rule="evenodd" d="M-4.78015 79.6208L-21.1455 89.0685L-43.4589 85.6347L-49.4069 72.7532L-33.0416 63.3055L-10.7282 66.7393L-4.78015 79.6208Z" fill="#F5BA93" stroke="#F4F1DE" stroke-width="5" stroke-linejoin="round"/>
<path fill-rule="evenodd" clip-rule="evenodd" d="M-7.98376 162.791L-24.3491 172.239L-46.6625 168.805L-52.6105 155.924L-36.2452 146.476L-13.9318 149.91L-7.98376 162.791Z" fill="#F5BA93" stroke="#F4F1DE" stroke-width="5" stroke-linejoin="round"/>
<path fill-rule="evenodd" clip-rule="evenodd" d="M41.1759 134.412L24.8106 143.859L2.49718 140.425L-3.45088 127.544L12.9145 118.096L35.2278 121.53L41.1759 134.412Z" fill="#F5BA93" stroke="#F4F1DE" stroke-width="5" stroke-linejoin="round"/>
<path fill-rule="evenodd" clip-rule="evenodd" d="M-42.1298 133.558L-25.7645 124.11L-3.45111 127.544L2.49695 140.426L-13.8684 149.873L-36.1818 146.439L-42.1298 133.558Z" fill="#F5BA93" stroke="#F4F1DE" stroke-width="5" stroke-linejoin="round"/>
<path fill-rule="evenodd" clip-rule="evenodd" d="M6.96611 105.215L23.3315 95.7669L45.6448 99.2007L51.5929 112.082L35.2276 121.53L12.9142 118.096L6.96611 105.215Z" fill="#F5BA93" stroke="#F4F1DE" stroke-width="5" stroke-linejoin="round"/>
<path fill-rule="evenodd" clip-rule="evenodd" d="M12.9142 118.096L-3.45109 127.544L-25.7645 124.11L-31.694 111.239L-15.3287 101.792L6.96619 105.215L12.9142 118.096Z" fill="#F5BA93" stroke="#F4F1DE" stroke-width="5" stroke-linejoin="round"/>
<path fill-rule="evenodd" clip-rule="evenodd" d="M-21.2766 88.9101L-4.91123 79.4623L17.4022 82.8962L23.3317 95.767L6.96639 105.215L-15.3285 101.792L-21.2766 88.9101Z" fill="#F5BA93" stroke="#F4F1DE" stroke-width="5" stroke-linejoin="round"/>
<path fill-rule="evenodd" clip-rule="evenodd" d="M246.919 224.926L230.553 234.374L208.24 230.94L202.292 218.059L218.657 208.611L240.971 212.045L246.919 224.926Z" fill="#F5BA93" stroke="#F4F1DE" stroke-width="5" stroke-linejoin="round"/>
<path fill-rule="evenodd" clip-rule="evenodd" d="M230.422 234.216L246.788 224.768L269.101 228.202L275.03 241.073L258.665 250.52L236.37 247.097L230.422 234.216Z" fill="#F5BA93" stroke="#F4F1DE" stroke-width="5" stroke-linejoin="round"/>
<path fill-rule="evenodd" clip-rule="evenodd" d="M236.37 247.097L220.005 256.545L197.692 253.111L191.743 240.23L208.109 230.782L230.422 234.216L236.37 247.097Z" fill="#F5BA93" stroke="#F4F1DE" stroke-width="5" stroke-linejoin="round"/>
<path fill-rule="evenodd" clip-rule="evenodd" d="M30.4203 156.702L14.055 166.149L-8.25844 162.715L-14.2065 149.834L2.15884 140.386L24.4722 143.82L30.4203 156.702Z" fill="#F5BA93" stroke="#F4F1DE" stroke-width="5" stroke-linejoin="round"/>
<path fill-rule="evenodd" clip-rule="evenodd" d="M79.5802 128.322L63.2149 137.769L40.9015 134.336L34.9534 121.454L51.3188 112.006L73.6321 115.44L79.5802 128.322Z" fill="#F5BA93" stroke="#F4F1DE" stroke-width="5" stroke-linejoin="round"/>
<path fill-rule="evenodd" clip-rule="evenodd" d="M27.2731 239.839L10.9077 249.287L-11.4057 245.853L-17.3537 232.972L-0.988374 223.524L21.325 226.958L27.2731 239.839Z" fill="#F5BA93" stroke="#F4F1DE" stroke-width="5" stroke-linejoin="round"/>
<path fill-rule="evenodd" clip-rule="evenodd" d="M-0.988343 223.524L-17.3537 232.972L-39.6671 229.538L-45.5966 216.667L-29.2313 207.219L-6.9364 210.643L-0.988343 223.524Z" fill="#F5BA93" stroke="#F4F1DE" stroke-width="5" stroke-linejoin="round"/>
<path fill-rule="evenodd" clip-rule="evenodd" d="M76.3763 211.492L60.011 220.94L37.6976 217.506L31.7496 204.625L48.1149 195.177L70.4283 198.611L76.3763 211.492Z" fill="#F5BA93" stroke="#F4F1DE" stroke-width="5" stroke-linejoin="round"/>
<path fill-rule="evenodd" clip-rule="evenodd" d="M48.1147 195.177L31.7493 204.625L9.43596 201.191L3.5064 188.32L19.8717 178.872L42.1666 182.295L48.1147 195.177Z" fill="#F5BA93" stroke="#F4F1DE" stroke-width="5" stroke-linejoin="round"/>
<path fill-rule="evenodd" clip-rule="evenodd" d="M19.8719 178.872L3.50661 188.32L-18.8068 184.886L-24.7548 172.005L-8.3895 162.557L13.9239 165.991L19.8719 178.872Z" fill="#F5BA93" stroke="#F4F1DE" stroke-width="5" stroke-linejoin="round"/>
<path fill-rule="evenodd" clip-rule="evenodd" d="M125.536 183.113L109.17 192.56L86.8568 189.126L80.9087 176.245L97.2741 166.797L119.587 170.231L125.536 183.113Z" fill="#F5BA93" stroke="#F4F1DE" stroke-width="5" stroke-linejoin="round"/>
<path fill-rule="evenodd" clip-rule="evenodd" d="M42.23 182.259L58.5954 172.811L80.9088 176.245L86.8568 189.126L70.4915 198.574L48.1781 195.14L42.23 182.259Z" fill="#F5BA93" stroke="#F4F1DE" stroke-width="5" stroke-linejoin="round"/>
<path fill-rule="evenodd" clip-rule="evenodd" d="M91.326 153.916L107.691 144.468L130.005 147.902L135.953 160.783L119.587 170.231L97.274 166.797L91.326 153.916Z" fill="#F5BA93" stroke="#F4F1DE" stroke-width="5" stroke-linejoin="round"/>
<path fill-rule="evenodd" clip-rule="evenodd" d="M97.2744 166.797L80.909 176.245L58.5956 172.811L52.6661 159.94L69.0314 150.493L91.3263 153.916L97.2744 166.797Z" fill="#F5BA93" stroke="#F4F1DE" stroke-width="5" stroke-linejoin="round"/>
<path fill-rule="evenodd" clip-rule="evenodd" d="M13.9871 165.954L30.3524 156.507L52.6658 159.94L58.5954 172.811L42.2301 182.259L19.9352 178.836L13.9871 165.954Z" fill="#F5BA93" stroke="#F4F1DE" stroke-width="5" stroke-linejoin="round"/>
<path fill-rule="evenodd" clip-rule="evenodd" d="M63.0831 137.611L79.4484 128.163L101.762 131.597L107.691 144.468L91.326 153.916L69.0311 150.493L63.0831 137.611Z" fill="#F5BA93" stroke="#F4F1DE" stroke-width="5" stroke-linejoin="round"/>
<path fill-rule="evenodd" clip-rule="evenodd" d="M69.0311 150.493L52.6658 159.94L30.3524 156.506L24.4043 143.625L40.7697 134.177L63.0831 137.611L69.0311 150.493Z" fill="#F5BA93" stroke="#F4F1DE" stroke-width="5" stroke-linejoin="round"/>
<path fill-rule="evenodd" clip-rule="evenodd" d="M-6.93623 210.642L9.42911 201.195L31.7425 204.629L37.6906 217.51L21.3252 226.958L-0.988173 223.524L-6.93623 210.642Z" fill="#F5BA93" stroke="#F4F1DE" stroke-width="5" stroke-linejoin="round"/>
<path fill-rule="evenodd" clip-rule="evenodd" d="M-35.1791 194.338L-18.8138 184.89L3.49958 188.324L9.42914 201.195L-6.9362 210.643L-29.2311 207.219L-35.1791 194.338Z" fill="#F5BA93" stroke="#F4F1DE" stroke-width="5" stroke-linejoin="round"/>
<path fill-rule="evenodd" clip-rule="evenodd" d="M65.2367 233.495L48.8714 242.943L26.558 239.509L20.6099 226.628L36.9752 217.18L59.2886 220.614L65.2367 233.495Z" fill="#F5BA93" stroke="#F4F1DE" stroke-width="5" stroke-linejoin="round"/>
<path fill-rule="evenodd" clip-rule="evenodd" d="M114.34 205.148L97.9744 214.596L75.661 211.162L69.7129 198.28L86.0783 188.833L108.392 192.267L114.34 205.148Z" fill="#F5BA93" stroke="#F4F1DE" stroke-width="5" stroke-linejoin="round"/>
<path fill-rule="evenodd" clip-rule="evenodd" d="M163.499 176.768L147.134 186.216L124.82 182.782L118.872 169.901L135.237 160.453L157.551 163.887L163.499 176.768Z" fill="#F5BA93" stroke="#F4F1DE" stroke-width="5" stroke-linejoin="round"/>
<path fill-rule="evenodd" clip-rule="evenodd" d="M132.034 243.623L115.669 253.071L93.3554 249.637L87.4258 236.767L103.791 227.319L126.086 230.742L132.034 243.623Z" fill="#F5BA93" stroke="#F4F1DE" stroke-width="5" stroke-linejoin="round"/>
<path fill-rule="evenodd" clip-rule="evenodd" d="M103.791 227.319L87.4258 236.767L65.1124 233.333L59.1644 220.451L75.5297 211.003L97.8431 214.437L103.791 227.319Z" fill="#F5BA93" stroke="#F4F1DE" stroke-width="5" stroke-linejoin="round"/>
<path fill-rule="evenodd" clip-rule="evenodd" d="M209.455 231.559L193.09 241.007L170.776 237.573L164.828 224.691L181.194 215.244L203.507 218.678L209.455 231.559Z" fill="#F5BA93" stroke="#F4F1DE" stroke-width="5" stroke-linejoin="round"/>
<path fill-rule="evenodd" clip-rule="evenodd" d="M126.149 230.705L142.515 221.258L164.828 224.691L170.776 237.573L154.411 247.021L132.097 243.587L126.149 230.705Z" fill="#F5BA93" stroke="#F4F1DE" stroke-width="5" stroke-linejoin="round"/>
<path fill-rule="evenodd" clip-rule="evenodd" d="M175.245 202.362L191.611 192.914L213.924 196.348L219.872 209.23L203.507 218.678L181.193 215.244L175.245 202.362Z" fill="#F5BA93" stroke="#F4F1DE" stroke-width="5" stroke-linejoin="round"/>
<path fill-rule="evenodd" clip-rule="evenodd" d="M181.194 215.244L164.828 224.691L142.515 221.258L136.585 208.387L152.951 198.939L175.245 202.362L181.194 215.244Z" fill="#F5BA93" stroke="#F4F1DE" stroke-width="5" stroke-linejoin="round"/>
<path fill-rule="evenodd" clip-rule="evenodd" d="M97.9063 214.401L114.272 204.953L136.585 208.387L142.515 221.258L126.149 230.705L103.854 227.282L97.9063 214.401Z" fill="#F5BA93" stroke="#F4F1DE" stroke-width="5" stroke-linejoin="round"/>
<path fill-rule="evenodd" clip-rule="evenodd" d="M147.002 186.058L163.368 176.61L185.681 180.044L191.611 192.914L175.245 202.362L152.951 198.939L147.002 186.058Z" fill="#F5BA93" stroke="#F4F1DE" stroke-width="5" stroke-linejoin="round"/>
<path fill-rule="evenodd" clip-rule="evenodd" d="M152.951 198.939L136.585 208.387L114.272 204.953L108.324 192.071L124.689 182.624L147.003 186.058L152.951 198.939Z" fill="#F5BA93" stroke="#F4F1DE" stroke-width="5" stroke-linejoin="round"/>
<path fill-rule="evenodd" clip-rule="evenodd" d="M48.7398 242.784L65.1051 233.337L87.4185 236.771L93.3481 249.641L76.9827 259.089L54.6879 255.666L48.7398 242.784Z" fill="#F5BA93" stroke="#F4F1DE" stroke-width="5" stroke-linejoin="round"/>
</g>
</g>
<defs>
<filter id="filter0_d" x="0" y="0" width="322" height="235.823" filterUnits="userSpaceOnUse" color-interpolation-filters="sRGB">
<feFlood flood-opacity="0" result="BackgroundImageFix"/>
<feColorMatrix in="SourceAlpha" type="matrix" values="0 0 0 0 0 0 0 0 0 0 0 0 0 0 0 0 0 0 127 0"/>
<feOffset dy="4"/>
<feGaussianBlur stdDeviation="2"/>
<feColorMatrix type="matrix" values="0 0 0 0 0 0 0 0 0 0 0 0 0 0 0 0 0 0 0.25 0"/>
<feBlend mode="normal" in2="BackgroundImageFix" result="effect1_dropShadow"/>
<feBlend mode="normal" in="SourceGraphic" in2="effect1_dropShadow" result="shape"/>
</filter>
</defs>
</svg>
