<svg width="322" height="236" viewBox="0 0 322 236" fill="none" xmlns="http://www.w3.org/2000/svg">
<g filter="url(#filter0_d)">
<rect x="4" width="314" height="227.823" rx="3" fill="#CBD9C9"/>
<mask id="mask0" mask-type="alpha" maskUnits="userSpaceOnUse" x="60" y="18" width="196" height="192">
<ellipse cx="157.73" cy="114.034" rx="73.5" ry="65.6784" transform="rotate(33.9511 157.73 114.034)" fill="white"/>
</mask>
<g mask="url(#mask0)">
<ellipse cx="157.73" cy="114.034" rx="73.5" ry="65.6784" transform="rotate(33.9511 157.73 114.034)" fill="#C18D6A"/>
<path d="M231.822 111.115C185.713 97.6787 158.256 81.181 131.47 45.7547C119.996 47.9332 115.356 52.9276 105.456 60.0462C145.281 101.407 176.224 124.274 228.117 143.941L231.822 111.115Z" fill="#F5BA93"/>
<path d="M217.698 82.6065C195.581 77.172 184.007 68.714 164.53 45.9672L202.442 56.0263L217.698 82.6065Z" fill="#F5BA93"/>
<path d="M224.89 147.233C169.203 123.817 143.591 104.047 103.293 62.4068L88.8864 75.4722L84.3208 98.7188C125.438 134.323 148.828 153.86 202.03 174.264L217.133 165.755L224.89 147.233Z" fill="#F5BA93"/>
</g>
<path d="M113.306 56.5637C106.387 61.1109 104.597 63.9636 100.73 67.7473C69.4793 57.7801 71.2676 64.1794 92.914 89.6416C133.957 126.213 159.195 144.093 210.024 166.65C235.074 174.703 241.013 173.189 222.262 149.061C224.672 143.427 226.356 140.315 227.889 132.4C326.961 225.74 305.395 226.095 195.718 178.218C148.496 151.121 123.456 134.659 82.5655 101.977C-9.39994 23.6482 0.114452 -4.14568 113.306 56.5637Z" fill="#F4F1DE"/>
</g>
<defs>
<filter id="filter0_d" x="0" y="0" width="322" height="235.823" filterUnits="userSpaceOnUse" color-interpolation-filters="sRGB">
<feFlood flood-opacity="0" result="BackgroundImageFix"/>
<feColorMatrix in="SourceAlpha" type="matrix" values="0 0 0 0 0 0 0 0 0 0 0 0 0 0 0 0 0 0 127 0"/>
<feOffset dy="4"/>
<feGaussianBlur stdDeviation="2"/>
<feColorMatrix type="matrix" values="0 0 0 0 0 0 0 0 0 0 0 0 0 0 0 0 0 0 0.25 0"/>
<feBlend mode="normal" in2="BackgroundImageFix" result="effect1_dropShadow"/>
<feBlend mode="normal" in="SourceGraphic" in2="effect1_dropShadow" result="shape"/>
</filter>
</defs>
</svg>
