<svg width="330" height="244" viewBox="0 0 330 244" fill="none" xmlns="http://www.w3.org/2000/svg">
<g filter="url(#filter0_d)">
<rect x="8" y="3" width="314" height="227.823" rx="3" fill="#F5BA93"/>
<mask id="mask0" mask-type="alpha" maskUnits="userSpaceOnUse" x="8" y="3" width="314" height="228">
<rect x="8" y="3" width="314" height="228" rx="3" fill="#F5BA93"/>
</mask>
<g mask="url(#mask0)">
<path fill-rule="evenodd" clip-rule="evenodd" d="M157.429 307.783H47.1428L-8 212.556L47.1428 117.33H157.429L212.571 212.556L157.429 307.783Z" fill="#3D405B" stroke="#F5BA93" stroke-width="2" stroke-linejoin="round"/>
<path fill-rule="evenodd" clip-rule="evenodd" d="M212.571 22.1018L322.857 22.1018L378 117.328L322.857 212.555H212.571L157.428 117.328L212.571 22.1018Z" fill="#3D405B" stroke="#F5BA93" stroke-width="2" stroke-linejoin="round"/>
<path fill-rule="evenodd" clip-rule="evenodd" d="M157.429 117.329H47.1428L-8 22.102L47.1428 -73H157.429L212.571 22.102L157.429 117.329Z" fill="#3D405B" stroke="#F5BA93" stroke-width="2" stroke-linejoin="round"/>
<path d="M152.269 119.329C153.245 118.352 153.245 116.77 152.269 115.793L136.359 99.8834C135.382 98.9071 133.8 98.9071 132.823 99.8834C131.847 100.86 131.847 102.443 132.823 103.419L146.965 117.561L132.823 131.703C131.847 132.679 131.847 134.262 132.823 135.239C133.8 136.215 135.382 136.215 136.359 135.239L152.269 119.329ZM95.4622 120.061L150.501 120.061L150.501 115.061L95.4622 115.061L95.4622 120.061Z" fill="#EB7086"/>
<path d="M159.565 110.994C159.924 112.327 161.296 113.117 162.63 112.757L184.354 106.899C185.687 106.539 186.476 105.167 186.116 103.834C185.757 102.501 184.385 101.712 183.052 102.071L163.741 107.279L158.534 87.9684C158.175 86.6353 156.802 85.8461 155.469 86.2056C154.136 86.565 153.347 87.9372 153.707 89.2703L159.565 110.994ZM180.069 73.8788L159.812 109.097L164.146 111.59L184.403 76.3719L180.069 73.8788Z" fill="#CBD9C9"/>
<path d="M159.126 122.323C159.485 120.99 160.857 120.201 162.19 120.56L183.914 126.419C185.247 126.778 186.037 128.15 185.677 129.483C185.318 130.816 183.945 131.606 182.612 131.246L163.302 126.039L158.095 145.349C157.735 146.682 156.363 147.471 155.03 147.112C153.697 146.752 152.908 145.38 153.267 144.047L159.126 122.323ZM181.312 162.362L159.372 124.221L163.706 121.728L185.646 159.869L181.312 162.362Z" fill="#CBD9C9"/>
</g>
</g>
<defs>
<filter id="filter0_d" x="0" y="0" width="330" height="244" filterUnits="userSpaceOnUse" color-interpolation-filters="sRGB">
<feFlood flood-opacity="0" result="BackgroundImageFix"/>
<feColorMatrix in="SourceAlpha" type="matrix" values="0 0 0 0 0 0 0 0 0 0 0 0 0 0 0 0 0 0 127 0"/>
<feOffset dy="5"/>
<feGaussianBlur stdDeviation="4"/>
<feColorMatrix type="matrix" values="0 0 0 0 0 0 0 0 0 0 0 0 0 0 0 0 0 0 0.25 0"/>
<feBlend mode="normal" in2="BackgroundImageFix" result="effect1_dropShadow"/>
<feBlend mode="normal" in="SourceGraphic" in2="effect1_dropShadow" result="shape"/>
</filter>
</defs>
</svg>
